<svg xmlns="http://www.w3.org/2000/svg" xmlns:xlink="http://www.w3.org/1999/xlink" width="120" height="36" viewBox="0 0 120 36"><defs><style>.a,.c{fill:#fff;}.b{clip-path:url(#a);}.c{fill-rule:evenodd;}</style><clipPath id="a"><rect class="a" width="120" height="36" transform="translate(-6604 22277)"/></clipPath></defs><g class="b" transform="translate(6604 -22277)"><g transform="translate(-6604.177 22276.279)"><path d="M118.913,32.536A3.423,3.423,0,0,1,115.533,36H4.829a3.339,3.339,0,0,1-2.4-1.011,3.508,3.508,0,0,1-.993-2.453V4.9A3.432,3.432,0,0,1,4.829,1.44H115.56A3.424,3.424,0,0,1,118.913,4.9Z"/><path class="a" d="M25.514,18.557a5.248,5.248,0,0,1,2.519-4.4,5.431,5.431,0,0,0-4.271-2.293c-1.825-.19-3.532,1.069-4.453,1.069s-2.345-1.051-3.86-1.015a5.691,5.691,0,0,0-4.782,2.9c-2.072,3.552-.529,8.78,1.46,11.653.995,1.4,2.154,2.981,3.65,2.927s2.035-.906,3.824-.906,2.291.906,3.842.906,2.592-1.414,3.55-2.836a11.591,11.591,0,0,0,1.624-3.28A5.073,5.073,0,0,1,25.514,18.557Z"/><path class="a" d="M22.594,9.976a5.149,5.149,0,0,0,1.2-3.706,5.315,5.315,0,0,0-3.431,1.758,4.9,4.9,0,0,0-1.223,3.57A4.393,4.393,0,0,0,22.594,9.976Z"/><path class="c" d="M44.9,29.177h2.081L43.045,17.125H40.627L36.721,29.177h2.017l1.086-3.543h3.942ZM42.407,21.04l1.022,3.153H40.161l1.086-3.162q.392-1.5.575-2.274Q42.233,20.523,42.407,21.04Z"/><path class="c" d="M55.822,28.234a4.916,4.916,0,0,0,1.2-3.507,4.771,4.771,0,0,0-1.068-3.208,3.473,3.473,0,0,0-5.54.344l-.11-1.377H48.594q.073,1.468.073,2.863V32.72h1.99V28.144a2.689,2.689,0,0,0,2.482,1.232A3.544,3.544,0,0,0,55.822,28.234Zm-1.351-5.527a3.605,3.605,0,0,1,.575,2.093,3.678,3.678,0,0,1-.611,2.211,1.994,1.994,0,0,1-1.716.843,1.95,1.95,0,0,1-1.524-.652,2.311,2.311,0,0,1-.584-1.6v-1.45a2.51,2.51,0,0,1,.091-.589,2.2,2.2,0,0,1,.767-1.241,2.034,2.034,0,0,1,1.3-.471A1.994,1.994,0,0,1,54.471,22.707Z"/><path class="c" d="M65.9,28.234a4.916,4.916,0,0,0,1.2-3.507,4.781,4.781,0,0,0-1.068-3.208,3.473,3.473,0,0,0-5.54.344l-.109-1.377H58.669q.073,1.468.073,2.863V32.72h1.99V28.144a2.689,2.689,0,0,0,2.482,1.232A3.534,3.534,0,0,0,65.9,28.234Zm-1.351-5.527a3.6,3.6,0,0,1,.575,2.093,3.678,3.678,0,0,1-.593,2.175,1.994,1.994,0,0,1-1.716.843,1.952,1.952,0,0,1-1.579-.616,2.32,2.32,0,0,1-.584-1.6v-1.45a2.574,2.574,0,0,1,.091-.589,2.19,2.19,0,0,1,.767-1.241,2.035,2.035,0,0,1,1.3-.471A1.994,1.994,0,0,1,64.546,22.707Z"/><path class="a" d="M78.327,25.8a3.206,3.206,0,0,1-1.077,2.5,4.8,4.8,0,0,1-3.3,1.06,5.827,5.827,0,0,1-3.149-.752l.447-1.613a5.358,5.358,0,0,0,2.811.77,2.67,2.67,0,0,0,1.716-.489,1.609,1.609,0,0,0,.611-1.314,1.671,1.671,0,0,0-.5-1.232,4.7,4.7,0,0,0-1.679-.906q-3.176-1.214-3.176-3.489a3.054,3.054,0,0,1,1.141-2.483,4.43,4.43,0,0,1,2.975-.906,5.931,5.931,0,0,1,2.738.571l-.465,1.577a4.809,4.809,0,0,0-2.327-.553,2.366,2.366,0,0,0-1.606.5A1.428,1.428,0,0,0,73,20.125a1.473,1.473,0,0,0,.557,1.178,6.321,6.321,0,0,0,1.77.906,6,6,0,0,1,2.309,1.468A3.048,3.048,0,0,1,78.327,25.8Z"/><path class="a" d="M84.8,21.937H82.652v4.223q0,1.613,1.132,1.613a3.484,3.484,0,0,0,.867-.091l.064,1.459a4.434,4.434,0,0,1-1.515.217,2.345,2.345,0,0,1-1.825-.7,3.407,3.407,0,0,1-.648-2.347V21.937H79.449v-1.45h1.278V18.892l1.907-.571v2.166h2.145Z"/><path class="c" d="M93.321,28.053a4.746,4.746,0,0,0,1.15-3.289,4.511,4.511,0,0,0-1.113-3.181,4.011,4.011,0,0,0-3.1-1.269A4.094,4.094,0,0,0,87.079,21.6,4.7,4.7,0,0,0,85.9,24.909a4.6,4.6,0,0,0,1.141,3.2,3.929,3.929,0,0,0,3.066,1.269A4.131,4.131,0,0,0,93.321,28.053Zm-1.387-5.292a4.207,4.207,0,0,1-.055,4.15,2,2,0,0,1-3.513,0,3.883,3.883,0,0,1-.52-2.048,3.966,3.966,0,0,1,.52-2.1,1.955,1.955,0,0,1,1.825-1.042A1.928,1.928,0,0,1,91.934,22.761Z"/><path class="a" d="M100.8,22.181a3.4,3.4,0,0,0-.611-.054,1.829,1.829,0,0,0-1.588.77,2.875,2.875,0,0,0-.484,1.722V29.15H96.168V23.2q0-1.5-.073-2.718h1.7l.073,1.667h.055a2.972,2.972,0,0,1,.976-1.377,2.366,2.366,0,0,1,1.405-.462,3.153,3.153,0,0,1,.484,0Z"/><path class="c" d="M109.428,25.326a4.5,4.5,0,0,0,.073-.906,4.678,4.678,0,0,0-.776-2.7,3.274,3.274,0,0,0-2.865-1.4,3.743,3.743,0,0,0-3.066,1.4,4.96,4.96,0,0,0-1.086,3.271,4.376,4.376,0,0,0,1.159,3.19,4.27,4.27,0,0,0,3.2,1.187,7.348,7.348,0,0,0,2.939-.535l-.3-1.341a6.493,6.493,0,0,1-2.364.408,2.906,2.906,0,0,1-1.907-.607,2.511,2.511,0,0,1-.849-1.966ZM107.3,22.435a2.612,2.612,0,0,1,.374,1.486h-4.052a2.869,2.869,0,0,1,.575-1.5,1.829,1.829,0,0,1,1.551-.788A1.7,1.7,0,0,1,107.3,22.435Z"/><path class="c" d="M41.822,12.114a2.96,2.96,0,0,0,.913-2.419,2.708,2.708,0,0,0-.83-2.166,3.568,3.568,0,0,0-2.364-.68,10.394,10.394,0,0,0-1.652.127v5.808a11.857,11.857,0,0,0,1.4.072A3.862,3.862,0,0,0,41.822,12.114ZM41.174,8.1a2.156,2.156,0,0,1,.557,1.595h.036a2.417,2.417,0,0,1-.593,1.812,2.274,2.274,0,0,1-1.734.535,5.084,5.084,0,0,1-.648,0V7.611a4.081,4.081,0,0,1,.767-.063A2.191,2.191,0,0,1,41.174,8.1Z"/><path class="c" d="M47.563,12.214a2.336,2.336,0,0,0,.566-1.613,2.246,2.246,0,0,0-.557-1.568,1.978,1.978,0,0,0-1.524-.625,2.015,2.015,0,0,0-1.561.634,2.309,2.309,0,0,0-.575,1.622,2.264,2.264,0,0,0,.566,1.577,1.932,1.932,0,0,0,1.506.625A2.033,2.033,0,0,0,47.563,12.214Zm-.684-2.519a1.919,1.919,0,0,1,.255.906v.063a1.909,1.909,0,0,1-.255,1.069.914.914,0,0,1-.858.516.969.969,0,0,1-.913-.507,1.919,1.919,0,0,1-.256-1.015,1.947,1.947,0,0,1,.256-1.033.96.96,0,0,1,.913-.507A.914.914,0,0,1,46.878,9.695Z"/><path class="a" d="M55.293,8.535,53.951,12.8h-.913l-.557-1.812a13.824,13.824,0,0,1-.347-1.377,10.06,10.06,0,0,1-.347,1.377L51.195,12.8h-.913L49.059,8.535h.976l.493,2.066q.173.716.292,1.368.11-.535.356-1.359l.612-2.039h.776l.584,1.993q.21.734.347,1.4a13.307,13.307,0,0,1,.292-1.4l.52-1.993h.913Z"/><path class="a" d="M60.257,12.8h-.913V10.356q0-1.133-.867-1.133a.915.915,0,0,0-.694.308,1.1,1.1,0,0,0-.265.734V12.8h-.913V8.535h.73v.671a1.372,1.372,0,0,1,.493-.516,1.624,1.624,0,0,1,.867-.245,1.374,1.374,0,0,1,1,.39,1.868,1.868,0,0,1,.493,1.414Z"/><path class="a" d="M62.895,12.8H61.9V6.578h.913Z"/><path class="c" d="M67.959,12.214a2.336,2.336,0,0,0,.566-1.613,2.246,2.246,0,0,0-.538-1.531,1.978,1.978,0,0,0-1.524-.625,2.016,2.016,0,0,0-1.561.6,2.31,2.31,0,0,0-.584,1.622,2.264,2.264,0,0,0,.557,1.577,1.923,1.923,0,0,0,1.506.625A2.033,2.033,0,0,0,67.959,12.214Zm-.684-2.519a1.921,1.921,0,0,1,.256.906v.063a1.9,1.9,0,0,1-.21,1.024.914.914,0,0,1-.858.516.969.969,0,0,1-.913-.507,1.92,1.92,0,0,1-.255-.97,1.946,1.946,0,0,1,.255-1.033.987.987,0,0,1,1.725,0Z"/><path class="c" d="M72.294,12.8h.858a6.616,6.616,0,0,1-.055-1.042V10.184q0-1.767-1.688-1.767a2.753,2.753,0,0,0-1.478.372l.183.652a2.009,2.009,0,0,1,1.1-.317q.913,0,.913.843V10a3.442,3.442,0,0,0-1.825.408,1.321,1.321,0,0,0-.657,1.2,1.209,1.209,0,0,0,.338.906,1.3,1.3,0,0,0,.986.39,1.473,1.473,0,0,0,1.259-.589Zm-.137-2.129v.652a.8.8,0,0,1-.347.671.972.972,0,0,1-.584.2.669.669,0,0,1-.466-.163.641.641,0,0,1-.182-.5Q70.579,10.674,72.158,10.674Z"/><path class="c" d="M77.743,12.8h.849q-.037-.526-.018-1.142V6.578H77.66V9.015a1.29,1.29,0,0,0-1.214-.58,1.721,1.721,0,0,0-1.332.6,2.462,2.462,0,0,0-.557,1.676,2.353,2.353,0,0,0,.511,1.577,1.62,1.62,0,0,0,1.3.607,1.435,1.435,0,0,0,1.378-.779ZM77.6,10.275V11a1.164,1.164,0,0,1-.246.77.915.915,0,0,1-.757.353.988.988,0,0,1-.84-.426,1.677,1.677,0,0,1-.292-1.033,1.8,1.8,0,0,1,.31-1.078.988.988,0,0,1,.84-.426.917.917,0,0,1,.639.236,1.078,1.078,0,0,1,.347.58A1.384,1.384,0,0,1,77.6,10.275Z"/><path class="c" d="M86.2,12.214a2.336,2.336,0,0,0,.566-1.613,2.246,2.246,0,0,0-.529-1.531,1.969,1.969,0,0,0-1.524-.625,2.016,2.016,0,0,0-1.57.6,2.31,2.31,0,0,0-.584,1.622,2.264,2.264,0,0,0,.557,1.577,1.932,1.932,0,0,0,1.506.625A2.024,2.024,0,0,0,86.2,12.214Zm-.684-2.519a1.919,1.919,0,0,1,.255.906v.063a1.919,1.919,0,0,1-.246,1.033.98.98,0,0,1-1.725,0,1.92,1.92,0,0,1-.255-.97A1.946,1.946,0,0,1,83.8,9.695a.959.959,0,0,1,.858-.507A.914.914,0,0,1,85.518,9.695Z"/><path class="a" d="M91.906,12.8h-.913V10.356q0-1.133-.913-1.133a.86.86,0,0,0-.694.308,1.092,1.092,0,0,0-.265.734V12.8H88.21V8.535h.84v.671a1.391,1.391,0,0,1,.493-.516,1.624,1.624,0,0,1,.913-.245,1.374,1.374,0,0,1,1,.39,1.867,1.867,0,0,1,.493,1.414Z"/><path class="a" d="M98.349,9.242H97.3v2.075c0,.526.192.788.557.788a1.7,1.7,0,0,0,.429,0v.725a2.159,2.159,0,0,1-.739.109,1.145,1.145,0,0,1-.913-.344,1.667,1.667,0,0,1-.319-1.151v-2.2h-.63V8.535h.63V7.756l.913-.281v1.06h1.049v.707Z"/><path class="a" d="M103.405,12.8h-.913V10.374q0-1.151-.867-1.151a.912.912,0,0,0-.913.661,1.189,1.189,0,0,0,0,.344V12.8H99.8V6.578h.913V9.151a1.444,1.444,0,0,1,1.3-.7,1.338,1.338,0,0,1,.958.335,1.939,1.939,0,0,1,.484,1.432Z"/><path class="c" d="M108.634,10.9a2.285,2.285,0,0,0,0-.435,2.273,2.273,0,0,0-.429-1.323,1.6,1.6,0,0,0-1.405-.689,1.83,1.83,0,0,0-1.506.689,2.435,2.435,0,0,0-.529,1.6,2.147,2.147,0,0,0,.566,1.568,2.089,2.089,0,0,0,1.57.58,3.674,3.674,0,0,0,1.442-.263l-.146-.661a3.188,3.188,0,0,1-1.159.2,1.431,1.431,0,0,1-.913-.3,1.237,1.237,0,0,1-.42-.97Zm-1.1-1.414a1.271,1.271,0,0,1,.182.734l-1.98-.009a1.434,1.434,0,0,1,.283-.734.915.915,0,0,1,.757-.39A.841.841,0,0,1,107.539,9.486Z"/></g></g></svg>