<?xml version="1.0" encoding="utf-8"?>
<!-- Generator: Adobe Illustrator 26.1.0, SVG Export Plug-In . SVG Version: 6.00 Build 0)  -->
<svg version="1.1" id="Layer_1" xmlns="http://www.w3.org/2000/svg" xmlns:xlink="http://www.w3.org/1999/xlink" x="0px" y="0px"
	 viewBox="0 0 418.52 126.61" style="enable-background:new 0 0 418.52 126.61;" xml:space="preserve">
<style type="text/css">
	.st0{fill:#304961;}
	.st1{fill:#40AEAF;}
</style>
<g>
	<g>
		<g>
			<path class="st0" d="M158.4,49.72c-15.46,0-25.85,10.17-25.85,25.31c0,15.61,10.14,25.32,26.47,25.32
				c10.43,0,18.2-3.35,23.09-9.95l0.56-0.75l-9.11-7.52l-0.65,0.77c-3.04,3.59-7.66,5.57-13.01,5.57c-6.89,0-11.32-3.05-12.87-8.83
				h36.82l0.04-0.96c0,0,0.09-2.34,0.09-3.47C183.99,59.25,174.42,49.72,158.4,49.72z M158.4,61.43c8.29,0,10.76,4.75,11.5,7.71
				h-22.73C148.74,64.15,152.69,61.43,158.4,61.43z"/>
			<polygon class="st0" points="224.87,50.75 205.01,70.62 205.01,32.62 190.88,32.62 190.88,99.4 205.01,99.4 205.01,87.74 
				213.26,79.95 225.62,99.32 241.69,99.32 223.56,70.27 242.61,50.75 			"/>
			<path class="st0" d="M278.18,84.7c-2.81,2.19-6.13,3.26-10.12,3.26c-5.39,0-8.97-1.82-8.97-10.69V50.75h-14.14v27.89
				c0,15.74,5.41,21.87,19.31,21.87c4.96,0,10.17-1.36,14.54-3.78v2.66h13.52V50.75h-14.14V84.7z"/>
			<path class="st0" d="M324.43,49.72c-15.46,0-25.84,10.17-25.84,25.31c0,15.61,10.14,25.32,26.47,25.32
				c10.43,0,18.2-3.35,23.09-9.95l0.56-0.75l-9.11-7.52l-0.65,0.77c-3.04,3.59-7.66,5.57-13,5.57c-6.89,0-11.32-3.05-12.87-8.83
				h36.82l0.04-0.96c0,0,0.09-2.34,0.09-3.47C350.02,59.25,340.46,49.72,324.43,49.72z M324.43,61.43c8.29,0,10.77,4.75,11.5,7.71
				h-22.73C314.78,64.15,318.72,61.43,324.43,61.43z"/>
			<path class="st0" d="M384.17,49.63c-4.7,0-9.46,1.26-13.13,3.42v-2.31h-13.96v63.69h13.96V96.99c3.4,2.23,7.88,3.45,12.86,3.45
				c15.29,0,24.79-9.73,24.79-25.4C408.69,59.37,399.3,49.63,384.17,49.63z M370.87,65.99c2.57-2.47,6.46-3.88,10.74-3.88
				c8.29,0,12.86,4.59,12.86,12.92c0,8.02-4.83,13.01-12.59,13.01c-4.56,0-8.45-1.34-11.01-3.8V65.99z"/>
		</g>
		<g>
			<g>
				<path class="st1" d="M101.46,87.18c-1.27-2.21-0.52-5.03,1.69-6.29c2.21-1.27,5.01-0.52,6.28,1.69
					c1.28,2.19,0.52,5.01-1.68,6.28C105.55,90.14,102.74,89.38,101.46,87.18z"/>
				<path class="st1" d="M112.1,57.53v-24.9c0-11.29-9.16-20.46-20.45-20.46H30.28c-11.29,0-20.45,9.17-20.45,20.46v71.56
					c0,5.65,4.59,10.26,10.26,10.26h28.04c-0.01,0-0.01-0.01-0.01-0.01c-3.38-5.86-1.38-13.36,4.5-16.75
					c1.93-1.12,4.05-1.65,6.13-1.65L36.45,57.41l-9.75,5.63c-0.48,0.27-1.01,0.41-1.53,0.41c-1.05,0-2.08-0.54-2.66-1.54
					c-0.84-1.46-0.34-3.34,1.12-4.18l15.07-8.69l3.07,5.31l24.55,42.51l34.54-19.94c0.04-0.03,0.07-0.04,0.11-0.05v-0.01
					c3.72-2.08,8.3-1.29,11.14,1.66V63.32l-2.81,1.62l-1.02-1.77L74.61,82.61l1.02,1.77l-5.31,3.06l-1.02-1.77L51.46,54.78
					l44.29-25.55L112.1,57.53z M46.23,90.72l-24.79,14.32l-3.08-5.33L43.16,85.4L46.23,90.72z M37.02,74.77l3.08,5.31L20.6,91.34
					l-3.07-5.31L37.02,74.77z M48.85,50.24L44.2,42.2c-1.14-1.98-0.46-4.5,1.51-5.64l37.14-21.44c1.98-1.14,4.5-0.46,5.64,1.51
					l4.65,8.05L48.85,50.24z"/>
				<path class="st1" d="M110.05,92.85c0.78-0.45,1.46-0.98,2.04-1.59v23.18H69.35c2.14-3.68,2.29-8.35,0.03-12.27l27.02-15.61
					c0.19,0.99,0.54,1.99,1.09,2.92C100.01,93.88,105.65,95.38,110.05,92.85z"/>
				<g>
					<g>
						<path class="st1" d="M100.95,76.84v0.01c-0.04,0.01-0.07,0.03-0.11,0.05L100.95,76.84z"/>
					</g>
					<path class="st1" d="M61.81,113.61c-2.94,1.69-6.69,0.69-8.39-2.25c-1.69-2.93-0.68-6.69,2.25-8.38
						c1.92-1.12,4.2-1.06,6.01-0.07c0.95,0.5,1.8,1.29,2.38,2.32C65.75,108.16,64.74,111.92,61.81,113.61z"/>
					<path class="st1" d="M109.43,82.58c1.28,2.19,0.52,5.01-1.68,6.28c-2.21,1.28-5.01,0.52-6.29-1.68
						c-1.27-2.21-0.52-5.03,1.69-6.29C105.35,79.62,108.16,80.37,109.43,82.58z"/>
					<path class="st1" d="M107.75,88.86c-2.21,1.28-5.01,0.52-6.29-1.68c-1.27-2.21-0.52-5.03,1.69-6.29
						c2.21-1.27,5.01-0.52,6.28,1.69C110.71,84.77,109.95,87.59,107.75,88.86z"/>
					<path class="st1" d="M94.22,39.4c0,0.71-0.37,1.4-1.02,1.77L63.08,58.55c-0.97,0.57-2.22,0.23-2.79-0.75
						c-0.18-0.31-0.27-0.67-0.27-1.01c0-0.71,0.37-1.4,1.02-1.78l30.12-17.38c0.98-0.56,2.22-0.23,2.79,0.75
						C94.14,38.7,94.22,39.06,94.22,39.4z"/>
					<path class="st1" d="M84.13,27.51c-1.46,0.86-3.34,0.35-4.18-1.12s-0.35-3.34,1.12-4.2c1.47-0.84,3.35-0.34,4.2,1.13
						C86.1,24.79,85.6,26.66,84.13,27.51z"/>
					<path class="st1" d="M77.04,31.61c-1.46,0.84-3.34,0.34-4.18-1.13c-0.86-1.46-0.35-3.34,1.12-4.18
						c1.47-0.86,3.35-0.35,4.2,1.12C79.02,28.88,78.52,30.76,77.04,31.61z"/>
					<path class="st1" d="M62.88,39.78c-1.47,0.84-3.34,0.35-4.2-1.12c-0.84-1.47-0.34-3.35,1.13-4.2c1.47-0.84,3.34-0.34,4.18,1.13
						C64.85,37.05,64.35,38.93,62.88,39.78z"/>
					<path class="st1" d="M55.79,43.88c-1.47,0.84-3.35,0.34-4.2-1.13c-0.84-1.47-0.34-3.34,1.13-4.18
						c1.46-0.86,3.34-0.35,4.18,1.12C57.77,41.15,57.26,43.02,55.79,43.88z"/>
				</g>
			</g>
		</g>
	</g>
</g>
</svg>
