<?xml version="1.0" encoding="utf-8"?>
<!-- Generator: Adobe Illustrator 21.0.2, SVG Export Plug-In . SVG Version: 6.00 Build 0)  -->
<svg version="1.1" id="Layer_1" xmlns="http://www.w3.org/2000/svg" xmlns:xlink="http://www.w3.org/1999/xlink" x="0px" y="0px"
	 viewBox="0 0 24 24" style="enable-background:new 0 0 24 24;" xml:space="preserve">
<style type="text/css">
	.st0{fill:#FFFFFF;}
	.st1{clip-path:url(#SVGID_2_);fill:#40AEAF;}
</style>
<polygon class="st0" points="4.4,5.8 14.8,0.9 18.2,0.3 22,5.8 24,10.6 24,12.9 24,20.6 15.6,24 6.3,24 0.8,21.7 1.3,9.3 "/>
<g id="Group_17972" transform="translate(0 0)">
	<g>
		<defs>
			<rect id="SVGID_1_" width="24" height="24"/>
		</defs>
		<clipPath id="SVGID_2_">
			<use xlink:href="#SVGID_1_"  style="overflow:visible;"/>
		</clipPath>
		<path id="Path_24230" class="st1" d="M21.5,17.6c-0.3-0.5-0.1-1.2,0.4-1.5c0.5-0.3,1.2-0.1,1.5,0.4c0.3,0.5,0.1,1.2-0.4,1.5
			C22.5,18.3,21.8,18.1,21.5,17.6"/>
		<path id="Path_24231" class="st1" d="M24,10.6V4.8C24,2.1,21.9,0,19.2,0H4.8C2.1,0,0,2.1,0,4.8c0,0,0,0,0,0v16.8
			C0,22.9,1.1,24,2.4,24H9l0,0c-0.8-1.4-0.3-3.1,1.1-3.9c0.4-0.3,0.9-0.4,1.4-0.4l-5.2-9.1L4,11.9c-0.3,0.2-0.8,0.1-1-0.3
			c-0.2-0.3-0.1-0.8,0.3-1l3.5-2l0.7,1.2l5.8,10l8.1-4.7c0,0,0,0,0,0l0,0c0.9-0.5,1.9-0.3,2.6,0.4V12l-0.7,0.4L23.1,12l-7.9,4.6
			l0.2,0.4l-1.2,0.7L14,17.2L9.8,10l10.4-6L24,10.6z M8.5,18.4l-5.8,3.4L2,20.5l5.8-3.4L8.5,18.4z M6.4,14.7l0.7,1.2l-4.6,2.6
			l-0.7-1.2L6.4,14.7z M9.2,8.9L8.1,7C7.8,6.6,8,6,8.4,5.7c0,0,0,0,0,0l8.7-5c0.5-0.3,1.1-0.1,1.3,0.4c0,0,0,0,0,0l1.1,1.9L9.2,8.9z
			"/>
		<path id="Path_24232" class="st1" d="M23.5,18.9c0.2-0.1,0.3-0.2,0.5-0.4V24H14c0.5-0.9,0.5-2,0-2.9l6.3-3.7
			c0.2,1.2,1.4,1.9,2.5,1.7C23.1,19.1,23.3,19.1,23.5,18.9"/>
		<path id="Path_24233" class="st1" d="M21.4,15.2L21.4,15.2C21.4,15.2,21.4,15.2,21.4,15.2L21.4,15.2z"/>
		<path id="Path_24234" class="st1" d="M12.2,23.8c-0.7,0.4-1.6,0.2-2-0.5c-0.4-0.7-0.2-1.6,0.5-2c0.4-0.3,1-0.3,1.4,0
			c0.2,0.1,0.4,0.3,0.6,0.5C13.1,22.5,12.9,23.4,12.2,23.8"/>
		<path id="Path_24235" class="st1" d="M23.4,16.5c0.3,0.5,0.1,1.2-0.4,1.5c-0.5,0.3-1.2,0.1-1.5-0.4c-0.3-0.5-0.1-1.2,0.4-1.5
			c0,0,0,0,0,0C22.4,15.8,23.1,16,23.4,16.5C23.4,16.5,23.4,16.5,23.4,16.5"/>
		<path id="Path_24236" class="st1" d="M23,18c-0.5,0.3-1.2,0.1-1.5-0.4c-0.3-0.5-0.1-1.2,0.4-1.5c0.5-0.3,1.2-0.1,1.5,0.4
			c0,0,0,0,0,0C23.7,17,23.5,17.7,23,18"/>
		<path id="Path_24237" class="st1" d="M19.8,6.4c0,0.2-0.1,0.3-0.2,0.4l-7.1,4.1c-0.2,0.1-0.5,0.1-0.7-0.2c0,0,0,0,0,0
			c-0.1-0.2-0.1-0.5,0.2-0.7L19.1,6c0.2-0.1,0.5-0.1,0.7,0.2C19.8,6.2,19.8,6.3,19.8,6.4"/>
		<path id="Path_24238" class="st1" d="M17.4,3.6c-0.3,0.2-0.8,0.1-1-0.3c-0.2-0.3-0.1-0.8,0.3-1c0.3-0.2,0.8-0.1,1,0.3c0,0,0,0,0,0
			C17.9,3,17.8,3.4,17.4,3.6C17.4,3.6,17.4,3.6,17.4,3.6"/>
		<path id="Path_24239" class="st1" d="M15.8,4.6c-0.3,0.2-0.8,0.1-1-0.3c-0.2-0.3-0.1-0.8,0.3-1c0.3-0.2,0.8-0.1,1,0.3
			C16.2,3.9,16.1,4.4,15.8,4.6C15.8,4.6,15.8,4.6,15.8,4.6"/>
		<path id="Path_24240" class="st1" d="M12.4,6.5c-0.3,0.2-0.8,0.1-1-0.3c-0.2-0.3-0.1-0.8,0.3-1c0.3-0.2,0.8-0.1,1,0.3c0,0,0,0,0,0
			C12.9,5.8,12.8,6.3,12.4,6.5"/>
		<path id="Path_24241" class="st1" d="M10.8,7.4c-0.3,0.2-0.8,0.1-1-0.3s-0.1-0.8,0.3-1c0.3-0.2,0.8-0.1,1,0.3
			C11.2,6.8,11.1,7.2,10.8,7.4"/>
	</g>
</g>
</svg>
