<svg xmlns="http://www.w3.org/2000/svg" xmlns:xlink="http://www.w3.org/1999/xlink" width="120" height="36" viewBox="0 0 120 36"><defs><style>.a,.c,.d,.g{fill:#fff;}.b{clip-path:url(#a);}.c{stroke:#fff;stroke-width:0.288px;}.d{fill-rule:evenodd;}.e{opacity:0.2;}.f{opacity:0.12;}.g{opacity:0.25;}.h{fill:#32bbff;}.i{fill:#2c9fd9;}.j{fill:#29cc5e;}.k{fill:#d93f21;}.l{fill:#ffd500;}.m{fill:#fa0;}</style><clipPath id="a"><rect class="a" width="120" height="36" transform="translate(64 11872)"/></clipPath></defs><g class="b" transform="translate(-64 -11872)"><g transform="translate(63.823 11871.281)"><rect width="117.473" height="34.56" rx="5.76" transform="translate(1.44 1.44)"/><path class="c" d="M42.7,10.287a2.332,2.332,0,0,1-.653,1.728,2.542,2.542,0,0,1-1.914.769A2.7,2.7,0,0,1,38.206,12a2.741,2.741,0,0,1,0-3.839,2.765,2.765,0,0,1,3-.569,2.15,2.15,0,0,1,.818.579l-.461.458a1.746,1.746,0,0,0-1.427-.613,2.026,2.026,0,0,0-1.455.605,2,2,0,0,0-.572,1.46,2.038,2.038,0,0,0,1.238,1.9,2.064,2.064,0,0,0,2.242-.405,1.627,1.627,0,0,0,.435-1.054H40.137V9.9h2.532A2.173,2.173,0,0,1,42.7,10.287Z"/><path class="c" d="M46.689,8.127h-2.35V9.769H46.48v.622H44.339v1.642h2.35v.639H43.643V7.488h3.046Z"/><path class="c" d="M49.543,12.672h-.67V8.127H47.411V7.488H51.04v.639h-1.5Z"/><path class="c" d="M53.6,12.672V7.488h.67v5.184Z"/><path class="c" d="M57.244,12.672h-.67V8.127H55.112V7.488H58.7v.639H57.244Z"/><path class="d" d="M60.9,10.08A2.643,2.643,0,0,0,61.665,12a2.729,2.729,0,0,0,3.829,0,2.642,2.642,0,0,0,.766-1.918,2.642,2.642,0,0,0-.766-1.918,2.711,2.711,0,0,0-3.829,0A2.643,2.643,0,0,0,60.9,10.08ZM65,11.566a2,2,0,0,1-3.42-1.486,2,2,0,1,1,4,0A2.022,2.022,0,0,1,65,11.566Z"/><path class="a" d="M61.665,12l-.1.1h0ZM60.9,10.08l.144,0v-.006ZM65.493,12l.1.1h0Zm.766-1.918-.144,0v.006Zm-.766-1.918.1-.1h0Zm-3.829,0-.1-.1h0Zm.5,3.4-.1.1h0Zm2.837,0,.1.1h0Zm-3.42-1.486.144,0v-.012Zm.548-1.486-.1-.1,0,0Zm2.837,0-.1.1h0Zm.618,1.486-.144,0v.007ZM61.767,11.9a2.5,2.5,0,0,1-.724-1.814l-.288-.006a2.786,2.786,0,0,0,.807,2.023Zm3.625,0a2.585,2.585,0,0,1-3.626,0l-.2.2a2.873,2.873,0,0,0,4.031,0Zm.723-1.812a2.5,2.5,0,0,1-.724,1.814l.2.2a2.786,2.786,0,0,0,.807-2.023Zm-.724-1.82a2.5,2.5,0,0,1,.724,1.814l.288.006A2.786,2.786,0,0,0,65.6,8.061Zm-1.812-.749a2.564,2.564,0,0,1,1.813.749l.2-.2a2.851,2.851,0,0,0-2.016-.834Zm-1.813.749a2.563,2.563,0,0,1,1.813-.749V7.227a2.851,2.851,0,0,0-2.016.834Zm-.724,1.813a2.5,2.5,0,0,1,.724-1.814l-.2-.2a2.786,2.786,0,0,0-.807,2.023Zm1.016,1.592a2.164,2.164,0,0,0,3.039,0l-.2-.2a1.876,1.876,0,0,1-2.634,0Zm-.626-1.593a2.167,2.167,0,0,0,.625,1.592l.2-.2a1.88,1.88,0,0,1-.542-1.38Zm.587-1.58a2.166,2.166,0,0,0-.587,1.592l.288-.014a1.878,1.878,0,0,1,.509-1.38Zm3.043,0a2.164,2.164,0,0,0-3.039,0l.2.2a1.876,1.876,0,0,1,2.634,0Zm.661,1.591a2.167,2.167,0,0,0-.662-1.592l-.2.207a1.879,1.879,0,0,1,.574,1.38ZM65.1,11.667a2.167,2.167,0,0,0,.625-1.592l-.288.009a1.879,1.879,0,0,1-.542,1.38Z"/><path class="c" d="M67.208,12.672V7.488h.818l2.541,4.035V7.488h.67v5.184h-.7L67.878,8.447v4.225Z"/><path class="d" d="M43.093,21.368v1.555h3.759a3.246,3.246,0,0,1-.87,1.961,3.861,3.861,0,0,1-2.9,1.14,4.147,4.147,0,1,1,0-8.294,4.018,4.018,0,0,1,2.845,1.115l1.105-1.1a5.494,5.494,0,0,0-3.942-1.616,5.762,5.762,0,0,0-5.167,2.787,5.677,5.677,0,0,0,0,5.839,5.762,5.762,0,0,0,5.167,2.787,5.24,5.24,0,0,0,4.011-1.6A5.163,5.163,0,0,0,48.461,22.3a5.035,5.035,0,0,0-.087-.976Zm9.65-1.132a3.672,3.672,0,1,0,3.707,3.672,3.607,3.607,0,0,0-1.074-2.618,3.659,3.659,0,0,0-2.642-1.054Zm4.421,3.684a3.726,3.726,0,0,1,6.323-2.63,3.607,3.607,0,0,1,1.074,2.618,3.7,3.7,0,0,1-7.4.012Zm1.5.955a2.247,2.247,0,0,0,2.182,1.263,2.147,2.147,0,0,0,1.518-.677,2.117,2.117,0,0,0,.571-1.552,2.229,2.229,0,0,0-1.426-2.07,2.256,2.256,0,0,0-2.463.557A2.217,2.217,0,0,0,58.662,24.875Zm-8.107.007a2.248,2.248,0,0,0,2.188,1.256h-.009a2.147,2.147,0,0,0,1.518-.677,2.116,2.116,0,0,0,.571-1.552,2.229,2.229,0,0,0-1.428-2.07,2.256,2.256,0,0,0-2.463.562A2.217,2.217,0,0,0,50.555,24.881Zm28.8-4.645a3.478,3.478,0,0,1,3.167,2.341l.183.389L77.752,25a1.881,1.881,0,0,0,1.793,1.115,2.118,2.118,0,0,0,1.819-1.02l1.262.864a3.688,3.688,0,0,1-3.08,1.624,3.634,3.634,0,0,1-2.622-1.061,3.582,3.582,0,0,1-1.05-2.611,3.442,3.442,0,0,1,.939-2.585A3.493,3.493,0,0,1,79.353,20.236ZM77.473,23.8a2,2,0,0,1,.512-1.474,2.033,2.033,0,0,1,1.419-.668,1.438,1.438,0,0,1,1.375.778Zm-2.393,3.56H73.453v-10.8H75.08Zm-4.29-6.307h-.061a2.619,2.619,0,0,0-1.949-.864,3.679,3.679,0,0,0,0,7.353,2.531,2.531,0,0,0,1.949-.864h.052v.527a1.888,1.888,0,0,1-1.975,2.16,2.044,2.044,0,0,1-1.862-1.3l-1.418.588a3.525,3.525,0,0,0,3.28,2.169c1.906,0,3.481-1.115,3.481-3.828v-6.54h-1.5Zm-1.865,5.08h0Zm1.466-.693a2.076,2.076,0,0,1-1.466.693,2.236,2.236,0,0,1,0-4.458,2.094,2.094,0,0,1,1.461.7,2.064,2.064,0,0,1,.514,1.528A2.046,2.046,0,0,1,70.392,25.444Zm19.751-8.88h-3.9v10.8h1.627v-4.1h2.271a3.392,3.392,0,0,0,3.133-1.6,3.34,3.34,0,0,0,0-3.5A3.392,3.392,0,0,0,90.143,16.564Zm-2.271,5.184h2.271l.035.026a1.853,1.853,0,1,0,0-3.707H87.872Zm12.3-1.555a3.05,3.05,0,0,0-2.9,1.65l1.445.6a1.542,1.542,0,0,1,1.479-.795,1.575,1.575,0,0,1,1.164.333,1.553,1.553,0,0,1,.576,1.058v.112a3.615,3.615,0,0,0-1.7-.415c-1.558,0-3.133.864-3.133,2.428a2.49,2.49,0,0,0,.843,1.754,2.526,2.526,0,0,0,1.854.622A2.294,2.294,0,0,0,101.9,26.5h.052v.864h1.566V23.208a2.991,2.991,0,0,0-3.3-2.989Zm-1.471,5c0,.648.74.916,1.27.916l.043.026a1.961,1.961,0,0,0,1.906-1.728,2.9,2.9,0,0,0-1.479-.363C99.628,24.047,98.705,24.332,98.705,25.2Zm10.52-4.743-1.862,4.683h-.052l-1.932-4.683h-1.74l2.9,6.549-1.653,3.637h1.7l4.455-10.187Zm-13,6.912H94.6v-10.8h1.627Z"/><path class="a" d="M10.525,7.955a1.72,1.72,0,0,0-.383,1.21V28.276a1.72,1.72,0,0,0,.4,1.21l.061.06,10.764-10.7V18.6L10.586,7.894Z"/><path class="a" d="M24.935,22.418,21.367,18.85V18.6l3.568-3.577.078.043,4.273,2.411c1.218.683,1.218,1.806,0,2.5l-4.255,2.4Z"/><path class="a" d="M25.039,22.375,21.367,18.72,10.525,29.485a1.426,1.426,0,0,0,1.81.052l12.713-7.171"/><path class="a" d="M25.039,15.074,12.326,7.9a1.426,1.426,0,0,0-1.81.052L21.367,18.72Z"/><path class="e" d="M24.935,22.288,12.326,29.416a1.462,1.462,0,0,1-1.74,0l-.061.06.061.06a1.453,1.453,0,0,0,1.74,0l12.713-7.171Z"/><path class="f" d="M10.525,29.364a1.72,1.72,0,0,1-.4-1.21v.13a1.72,1.72,0,0,0,.4,1.21l.061-.06Z"/><path class="f" d="M29.285,19.843l-4.351,2.445.078.078,4.272-2.4a1.512,1.512,0,0,0,.87-1.244A1.608,1.608,0,0,1,29.285,19.843Z"/><path class="g" d="M12.326,8.024,29.285,17.6a1.609,1.609,0,0,1,.87,1.123,1.512,1.512,0,0,0-.87-1.244L12.326,7.9c-1.21-.691-2.184-.121-2.184,1.261v.13C10.142,7.911,11.116,7.341,12.326,8.024Z"/></g><g transform="translate(50.134 11878.678)"><g transform="translate(23.549 0.001)"><path class="h" d="M63.285,8.059C60.559,6.534,56.185,4.087,49.4.288A1.636,1.636,0,0,0,47.962.1L59.6,11.741Z" transform="translate(-46.843 -0.012)"/><path class="h" d="M24.668,1.93a1.673,1.673,0,0,0-.247.106,1.637,1.637,0,0,0-.871,1.455V23.65a1.637,1.637,0,0,0,.871,1.455,1.693,1.693,0,0,0,.247.106L36.308,13.571Z" transform="translate(-23.549 -1.842)"/><path class="h" d="M59.6,255.98,47.956,267.621a1.619,1.619,0,0,0,1.439-.188c6.58-3.684,10.9-6.1,13.662-7.64l.226-.127Z" transform="translate(-46.838 -244.251)"/></g><path class="i" d="M23.549,255.98v10.08a1.637,1.637,0,0,0,.871,1.455,1.69,1.69,0,0,0,.247.106L36.308,255.98Z" transform="translate(0 -244.251)"/><path class="j" d="M44.247.276A1.641,1.641,0,0,0,42.561.194L54.273,11.906l3.859-3.859C55.406,6.523,51.032,4.075,44.247.276Z" transform="translate(-18.141)"/><path class="k" d="M54.273,252.126,42.561,263.838a1.63,1.63,0,0,0,1.686-.082c6.58-3.684,10.9-6.1,13.662-7.64l.226-.127Z" transform="translate(-18.141 -240.573)"/><path class="l" d="M303.2,176.666a1.632,1.632,0,0,0-.84-1.435s-1.045-.583-4.247-2.374l-3.809,3.809,3.812,3.813c3.167-1.778,4.243-2.378,4.243-2.378A1.632,1.632,0,0,0,303.2,176.666Z" transform="translate(-258.348 -164.936)"/><path class="m" d="M302.359,257.415a1.633,1.633,0,0,0,.84-1.435h-8.9l3.813,3.813C301.282,258.014,302.359,257.415,302.359,257.415Z" transform="translate(-258.348 -244.251)"/></g></g></svg>